# xmcd
#
# Track frame offsets:
#	150
#	14277
#	23867
#	36585
#	50297
#	64364
#	77106
#	91995
#	102287
#	115212
#	128579
#	142204
#	156896
#	171401
#
# Disc length: 2471 seconds
#
# Revision: 0
# Processed by: cddbd v1.4PL0 Copyright (c) Steve Scherf et al.
# Submitted via: EasyCDDAExtractor 4.6.0.1
#
DISCID=c109a50e
DTITLE=Billy Holiday - Lady Day 3
DYEAR=1900
DGENRE=Blues
TTITLE0=Strange Fruit
TTITLE1=I'm Gonna Lock My Heart
TTITLE2=I Gotta Right To Sing The Blues
TTITLE3=Some Other Spring
TTITLE4=Tell Me More
TTITLE5=St. Louis Blues
TTITLE6=Georgia On My Mind
TTITLE7=Romance In The Dark
TTITLE8=Am I Blue
TTITLE9=Body And Soul
TTITLE10=All Of Me
TTITLE11=Solitude
TTITLE12=Gloomy Sunday
TTITLE13=Until That Real Thing Comes Along
EXTD=
EXTT0=
EXTT1=
EXTT2=
EXTT3=
EXTT4=
EXTT5=
EXTT6=
EXTT7=
EXTT8=
EXTT9=
EXTT10=
EXTT11=
EXTT12=
EXTT13=
PLAYORDER=
